<svg width="1345" height="264" viewBox="0 0 1345 264" fill="none" xmlns="http://www.w3.org/2000/svg">
<path d="M0.270689 260V4.40626H111.095C130.564 4.40626 146.913 7.0271 160.142 12.2688C173.454 17.5104 183.479 24.9153 190.219 34.4835C197.041 44.0516 200.453 55.3253 200.453 68.3047C200.453 77.7064 198.372 86.2761 194.212 94.0138C190.136 101.752 184.395 108.241 176.99 113.483C169.585 118.641 160.932 122.219 151.031 124.216V126.712C162.014 127.128 171.998 129.915 180.983 135.074C189.969 140.149 197.124 147.179 202.449 156.165C207.774 165.068 210.437 175.551 210.437 187.615C210.437 201.593 206.776 214.031 199.454 224.931C192.216 235.83 181.899 244.4 168.503 250.64C155.108 256.88 139.133 260 120.579 260H0.270689ZM69.6604 204.588H102.109C113.757 204.588 122.493 202.425 128.317 198.098C134.141 193.689 137.053 187.199 137.053 178.629C137.053 172.639 135.68 167.564 132.935 163.404C130.189 159.243 126.279 156.082 121.203 153.919C116.211 151.755 110.179 150.674 103.107 150.674H69.6604V204.588ZM69.6604 107.742H98.1152C104.189 107.742 109.555 106.785 114.215 104.872C118.874 102.958 122.493 100.212 125.072 96.6347C127.735 92.9738 129.066 88.5226 129.066 83.2809C129.066 75.3768 126.237 69.3447 120.579 65.1847C114.922 60.9414 107.766 58.8198 99.1136 58.8198H69.6604V107.742ZM482.629 132.203C482.629 160.658 477.096 184.661 466.03 204.214C454.965 223.683 440.03 238.451 421.227 248.518C402.423 258.502 381.456 263.494 358.327 263.494C335.03 263.494 313.98 258.461 295.177 248.393C276.457 238.243 261.564 223.433 250.498 203.964C239.515 184.412 234.024 160.492 234.024 132.203C234.024 103.748 239.515 79.7864 250.498 60.3174C261.564 40.7651 276.457 25.9969 295.177 16.0128C313.98 5.94548 335.03 0.911817 358.327 0.911817C381.456 0.911817 402.423 5.94548 421.227 16.0128C440.03 25.9969 454.965 40.7651 466.03 60.3174C477.096 79.7864 482.629 103.748 482.629 132.203ZM411.242 132.203C411.242 116.894 409.204 103.998 405.127 93.5146C401.134 82.9481 395.185 74.9608 387.281 69.5527C379.46 64.0614 369.808 61.3158 358.327 61.3158C346.845 61.3158 337.152 64.0614 329.248 69.5527C321.427 74.9608 315.478 82.9481 311.401 93.5146C307.407 103.998 305.411 116.894 305.411 132.203C305.411 147.512 307.407 160.45 311.401 171.016C315.478 181.5 321.427 189.487 329.248 194.978C337.152 200.386 346.845 203.09 358.327 203.09C369.808 203.09 379.46 200.386 387.281 194.978C395.185 189.487 401.134 181.5 405.127 171.016C409.204 160.45 411.242 147.512 411.242 132.203ZM514.734 260V4.40626H625.059C644.029 4.40626 660.627 7.85911 674.855 14.7648C689.082 21.6705 700.148 31.613 708.052 44.5924C715.956 57.5718 719.908 73.1304 719.908 91.2682C719.908 109.572 715.831 125.006 707.678 137.57C699.607 150.133 688.25 159.618 673.607 166.024C659.046 172.431 642.032 175.634 622.563 175.634H556.668V121.72H608.585C616.739 121.72 623.686 120.721 629.427 118.725C635.251 116.645 639.702 113.358 642.781 108.865C645.942 104.372 647.523 98.5067 647.523 91.2682C647.523 83.9465 645.942 77.9976 642.781 73.4216C639.702 68.7623 635.251 65.3511 629.427 63.1878C623.686 60.9414 616.739 59.8182 608.585 59.8182H584.124V260H514.734ZM664.496 142.686L728.395 260H653.014L590.614 142.686H664.496ZM818.876 4.40626V260H749.486V4.40626H818.876ZM1072.91 4.40626V260H1015L922.648 125.713H921.151V260H851.761V4.40626H910.667L1001.52 138.194H1003.52V4.40626H1072.91ZM1271.72 88.7722C1270.64 84.3625 1268.93 80.4937 1266.6 77.1656C1264.27 73.7544 1261.36 70.8839 1257.87 68.5543C1254.45 66.1415 1250.46 64.3526 1245.88 63.1878C1241.39 61.9398 1236.44 61.3158 1231.03 61.3158C1219.39 61.3158 1209.44 64.103 1201.21 69.6775C1193.05 75.252 1186.81 83.2809 1182.49 93.7642C1178.24 104.248 1176.12 116.894 1176.12 131.704C1176.12 146.68 1178.16 159.493 1182.24 170.143C1186.31 180.793 1192.39 188.946 1200.46 194.604C1208.53 200.262 1218.55 203.09 1230.53 203.09C1241.1 203.09 1249.88 201.551 1256.87 198.473C1263.94 195.394 1269.22 191.026 1272.72 185.369C1276.21 179.711 1277.96 173.055 1277.96 165.4L1289.94 166.648H1231.53V117.227H1344.85V152.671C1344.85 175.967 1339.9 195.894 1330 212.451C1320.18 228.924 1306.62 241.571 1289.32 250.39C1272.09 259.126 1252.33 263.494 1230.03 263.494C1205.16 263.494 1183.32 258.211 1164.51 247.645C1145.71 237.078 1131.03 222.019 1120.46 202.466C1109.98 182.914 1104.73 159.659 1104.73 132.702C1104.73 111.569 1107.94 92.849 1114.34 76.5416C1120.83 60.2342 1129.82 46.4644 1141.3 35.2323C1152.78 23.9169 1166.05 15.3888 1181.11 9.64793C1196.17 3.82385 1212.31 0.911817 1229.54 0.911817C1244.68 0.911817 1258.74 3.07505 1271.72 7.40151C1284.78 11.6448 1296.3 17.7184 1306.29 25.6225C1316.36 33.4434 1324.47 42.7204 1330.62 53.4533C1336.78 64.1862 1340.53 75.9592 1341.86 88.7722H1271.72Z" fill="black"/>
</svg>
